<svg width="96" height="20" viewBox="0 0 96 20" fill="none" xmlns="http://www.w3.org/2000/svg">
<path fill-rule="evenodd" clip-rule="evenodd" d="M21.4567 18.9581H16.477L15.7734 18.0379C14.7991 18.4168 13.933 18.6874 13.1753 18.9039C12.4175 19.0663 11.6056 19.1746 10.6854 19.1746C7.65429 19.1746 5.27269 18.4168 3.59474 16.9554C1.80854 15.4398 0.942505 13.1123 0.942505 10.1353C0.942505 7.1042 1.75441 4.77673 3.3241 3.20704C4.94792 1.63735 7.38365 0.825439 10.6854 0.825439C13.8789 0.825439 16.3146 1.69148 17.9926 3.36942C19.454 4.83086 20.1577 6.72531 20.1577 8.99866C20.1577 10.6766 20.1036 11.9215 19.9412 12.6793C19.7247 13.8701 19.1834 15.0068 18.4256 16.0352L21.4567 18.9581ZM15.7734 9.97295C15.7734 8.34913 15.4486 7.05008 14.745 6.02166C13.8789 4.7226 12.4716 4.07308 10.6313 4.07308C8.89921 4.07308 7.54603 4.56022 6.68 5.58864C5.81396 6.56293 5.38094 8.02437 5.38094 9.91882C5.38094 12.0298 5.86809 13.5995 6.8965 14.5738C7.81667 15.4398 9.16985 15.8728 10.956 15.8728C12.5799 15.8728 13.7707 15.3857 14.5826 14.4114C15.3945 13.383 15.7734 11.9215 15.7734 9.97295Z" fill="#F95A59"/>
<path fill-rule="evenodd" clip-rule="evenodd" d="M40.2392 13.383C40.2392 14.9527 39.698 16.2517 38.6696 17.3343C37.6411 18.4168 36.3421 18.9039 34.7183 18.9039H22.269V15.7104H32.6073C33.311 15.7104 33.9064 15.5481 34.3394 15.2233C34.8806 14.8444 35.1513 14.3573 35.1513 13.7077C35.1513 12.1922 34.0687 11.4344 31.9578 11.4344H26.7616C25.246 11.4344 23.9469 10.9472 22.8103 10.0271C21.6736 9.10691 21.1323 7.91611 21.1323 6.45468C21.1323 4.88499 21.6736 3.58593 22.8103 2.61164C23.8928 1.63735 25.3543 1.15021 27.1946 1.15021H39.1567V4.18133H28.5478C28.0606 4.18133 27.5735 4.39784 27.1405 4.77673C26.5992 5.15562 26.3827 5.64277 26.3827 6.18404C26.3827 6.77944 26.5992 7.32071 27.0863 7.6996C27.5735 8.13262 28.1147 8.295 28.7643 8.295H34.5018C36.288 8.295 37.6953 8.78215 38.7237 9.70231C39.7521 10.6225 40.2392 11.8674 40.2392 13.383Z" fill="#F95A59"/>
<path fill-rule="evenodd" clip-rule="evenodd" d="M60.6994 9.97296C60.6994 13.4371 59.7251 15.8728 57.8306 17.3884C56.2609 18.5792 53.9876 19.1746 51.0647 19.1746C47.7629 19.1746 45.3272 18.4709 43.7575 17.1178C42.0255 15.6022 41.1594 13.1665 41.1594 9.81058C41.1594 7.05009 41.9172 4.88499 43.4869 3.36943C45.1648 1.69149 47.6547 0.879578 51.0106 0.879578C54.6912 0.879578 57.2352 1.69149 58.7508 3.26118C60.0498 4.66849 60.6994 6.8877 60.6994 9.97296ZM56.1527 9.8647C56.1527 8.13263 55.7197 6.72532 54.9077 5.6969C53.9876 4.56023 52.5803 3.96483 50.7941 3.96483C49.0079 3.96483 47.6547 4.56023 46.7345 5.80516C45.9767 6.83358 45.5979 8.18676 45.5979 9.81058C45.5979 11.705 45.9226 13.1123 46.518 14.0325C47.3841 15.2774 48.8996 15.927 51.2271 15.927C53.1757 15.927 54.5289 15.3316 55.2866 14.0866C55.882 13.2206 56.1527 11.7592 56.1527 9.8647Z" fill="#F95A59"/>
<path fill-rule="evenodd" clip-rule="evenodd" d="M78.5068 11.4885H66.2741V18.8498H61.8898V7.97024C61.8898 7.32071 61.998 6.56293 62.2687 5.75102C62.7558 4.28959 63.676 3.20704 65.0292 2.44926C66.5988 1.58323 69.197 1.15021 72.7694 1.15021C80.4013 1.15021 88.0332 1.15021 95.6652 1.15021V4.12721H89.0617V18.8498H84.948V4.12721C80.7261 4.12721 76.7206 4.07308 72.4987 4.07308C70.8749 4.07308 69.7382 4.18133 69.0887 4.34372C67.952 4.61435 67.1942 5.26388 66.7071 6.18404C66.3282 6.8877 66.1658 7.64548 66.1658 8.51151H78.5068V11.4885Z" fill="#F95A59"/>
</svg>
